HIERARCHY
ROOT Hips
{
	OFFSET -0.001795 -0.223333 0.028219
	CHANNELS 6 Xposition Yposition Zposition Zrotation Yrotation Xrotation 
	JOINT LeftUpLeg
	{
		OFFSET 0.069520 -0.091406 -0.006815
		CHANNELS 3 Zrotation Yrotation Xrotation
		JOINT LeftLeg
		{
			OFFSET 0.034277 -0.375199 -0.004496
			CHANNELS 3 Zrotation Yrotation Xrotation
			JOINT LeftFoot
			{
				OFFSET -0.013596 -0.397961 -0.043693
				CHANNELS 3 Zrotation Yrotation Xrotation
				JOINT LeftToe
				{
					OFFSET 0.026358 -0.055791 0.119288
					CHANNELS 3 Zrotation Yrotation Xrotation
					End Site
					{
						OFFSET 0.000000 0.000000 0.000000
					}
				}
			}
		}
	}
	JOINT RightUpLeg
	{
		OFFSET -0.067670 -0.090522 -0.004320
		CHANNELS 3 Zrotation Yrotation Xrotation
		JOINT RightLeg
		{
			OFFSET -0.038290 -0.382569 -0.008850
			CHANNELS 3 Zrotation Yrotation Xrotation
			JOINT RightFoot
			{
				OFFSET 0.015774 -0.398415 -0.042312
				CHANNELS 3 Zrotation Yrotation Xrotation
				JOINT RightToe
				{
					OFFSET -0.025372 -0.048144 0.123348
					CHANNELS 3 Zrotation Yrotation Xrotation
					End Site
					{
						OFFSET 0.000000 0.000000 0.000000
					}
				}
			}
		}
	}
	JOINT Spine
	{
		OFFSET -0.002533 0.108963 -0.026696
		CHANNELS 3 Zrotation Yrotation Xrotation
		JOINT Spine1
		{
			OFFSET 0.005487 0.135180 0.001092
			CHANNELS 3 Zrotation Yrotation Xrotation
			JOINT Spine2
			{
				OFFSET 0.001457 0.052922 0.025425
				CHANNELS 3 Zrotation Yrotation Xrotation
				JOINT Neck
				{
					OFFSET -0.002778 0.213870 -0.042857
					CHANNELS 3 Zrotation Yrotation Xrotation
					JOINT Head
					{
						OFFSET 0.005152 0.064970 0.051349
						CHANNELS 3 Zrotation Yrotation Xrotation
						End Site
						{
							OFFSET 0.000000 0.000000 0.000000
						}
					}
				}
				JOINT LeftShoulder
				{
					OFFSET 0.078845 0.121749 -0.034090
					CHANNELS 3 Zrotation Yrotation Xrotation
					JOINT LeftArm
					{
						OFFSET 0.090977 0.030469 -0.008868
						CHANNELS 3 Zrotation Yrotation Xrotation
						JOINT LeftForeArm
						{
							OFFSET 0.259612 -0.012772 -0.027456
							CHANNELS 3 Zrotation Yrotation Xrotation
							JOINT LeftHand
							{
								OFFSET 0.249234 0.008986 -0.001171
								CHANNELS 3 Zrotation Yrotation Xrotation
								End Site
								{
									OFFSET 0.000000 0.000000 0.000000
								}
							}
						}
					}
				}
				JOINT RightShoulder
				{
					OFFSET -0.081759 0.118833 -0.038615
					CHANNELS 3 Zrotation Yrotation Xrotation
					JOINT RightArm
					{
						OFFSET -0.096012 0.032551 -0.009143
						CHANNELS 3 Zrotation Yrotation Xrotation
						JOINT RightForeArm
						{
							OFFSET -0.253742 -0.013329 -0.021401
							CHANNELS 3 Zrotation Yrotation Xrotation
							JOINT RightHand
							{
								OFFSET -0.255298 0.007772 -0.005559
								CHANNELS 3 Zrotation Yrotation Xrotation
								End Site
								{
									OFFSET 0.000000 0.000000 0.000000
								}
							}
						}
					}
				}
			}
		}
	}
}
MOTION
Frames: 7
Frame Time: 0.050000
0.000000 0.945414 0.000000 -1.650815 -12.614985 -3.098165 6.633583 0.318221 2.948959 -0.073098 -0.058362 3.100366 5.071150 11.646141 11.871233 0.000000 0.000000 0.000000 -1.783658 0.319570 -3.095516 2.335384 0.136002 9.160653 -1.681027 -7.823211 7.156095 0.000000 0.000000 0.000000 -0.828049 -0.275426 11.983979 8.041189 -1.918747 -21.370214 -0.703350 2.732007 27.380867 -1.955487 1.768988 -13.722552 0.000000 0.000000 0.000000 -24.062759 0.954500 -0.257240 -49.618461 -4.021973 -7.143063 -10.738151 -27.594870 4.365779 0.000000 0.000000 0.000000 17.191093 5.716028 0.873288 52.626717 0.618750 -7.305362 -2.647175 27.173572 0.389910 0.000000 0.000000 0.000000 
-0.001611 0.944006 0.000509 -1.873918 -13.037699 -2.737109 7.862107 0.305178 2.069919 -1.671151 0.205469 4.329807 5.253098 11.890708 11.424012 0.000000 0.000000 0.000000 -1.049703 0.438034 -4.511095 1.671410 0.359403 11.105018 -1.761540 -7.788738 6.627206 0.000000 0.000000 0.000000 -0.474791 -0.317878 13.021635 7.935476 -1.841106 -21.908233 0.425723 2.172698 27.198734 -3.306191 2.722035 -12.110657 0.000000 0.000000 0.000000 -24.822893 1.525908 -0.351942 -49.426579 -2.653789 -7.755981 -12.598676 -29.371013 5.277811 0.000000 0.000000 0.000000 16.206659 6.211359 1.019076 52.228366 -1.047756 -7.925667 -3.134287 27.256566 0.222153 0.000000 0.000000 0.000000 
-0.003263 0.941841 -0.000225 -1.534184 -11.864356 -2.717143 8.106380 0.235930 0.541735 -2.333118 0.326009 6.371780 4.787149 11.138829 10.588229 0.000000 0.000000 0.000000 -1.168891 0.565203 -5.866944 1.637865 0.493287 13.535669 -2.561732 -9.100831 6.049709 0.000000 0.000000 0.000000 -0.717376 -0.308131 14.250925 8.823687 -2.021074 -22.052918 -0.105420 1.171518 27.109378 -3.598653 2.879789 -13.387138 0.000000 0.000000 0.000000 -25.031811 1.710170 -0.428338 -48.791496 -2.689558 -7.682317 -13.365157 -29.705890 5.549421 0.000000 0.000000 0.000000 14.863468 6.284183 1.128971 52.869030 -2.148223 -8.545053 -3.204143 28.674391 0.202692 0.000000 0.000000 0.000000 
-0.005008 0.941862 -0.002817 -1.096161 -11.815686 -2.928015 8.770601 0.239126 -0.465096 -3.991797 0.698305 8.068239 4.600010 10.856475 10.943808 0.000000 0.000000 0.000000 -1.595687 0.700798 -7.366919 2.030567 0.590548 16.265800 -2.807478 -9.579188 5.984589 0.000000 0.000000 0.000000 -0.957269 -0.270109 16.624942 9.536647 -2.229026 -21.838119 -0.186859 1.690882 26.366093 -4.201288 3.464124 -12.856119 0.000000 0.000000 0.000000 -24.506410 1.536577 -0.598483 -48.330653 -1.844694 -7.769781 -15.270263 -31.291472 6.357697 0.000000 0.000000 0.000000 14.627336 7.054391 1.649616 51.239756 -2.476184 -8.344785 -2.333619 29.111790 0.422030 0.000000 0.000000 0.000000 
-0.006780 0.941640 -0.007784 -0.602975 -10.557652 -2.923832 8.724005 0.169999 -2.445564 -3.809018 0.703572 10.716021 3.021829 8.203490 10.369562 0.000000 0.000000 0.000000 -2.245019 0.830623 -9.005420 2.821185 0.491016 18.362922 -3.562945 -11.388102 6.955529 0.000000 0.000000 0.000000 -0.328283 -0.390848 19.204603 9.230791 -2.292716 -20.530486 -0.353802 1.928404 24.757670 -4.630622 3.891020 -13.786770 0.000000 0.000000 0.000000 -23.460663 1.143203 -0.778832 -48.657775 -1.908160 -7.479928 -15.797513 -33.393813 6.894165 0.000000 0.000000 0.000000 13.950819 7.031196 1.864709 51.175654 -2.740327 -8.292949 -1.011985 29.287585 0.788296 0.000000 0.000000 0.000000 
-0.008326 0.941758 -0.015169 -0.073066 -9.469860 -2.605789 8.845932 0.118431 -4.379085 -3.957024 0.765016 12.652886 1.355099 5.313109 9.729087 0.000000 0.000000 0.000000 -3.098954 0.965114 -11.012100 3.800507 0.277078 19.976494 -4.227061 -13.102388 8.588540 0.000000 0.000000 0.000000 0.155669 -0.515598 21.981288 8.650618 -2.199826 -19.783476 0.085038 2.137814 23.605505 -4.944086 4.219902 -14.228752 0.000000 0.000000 0.000000 -23.664876 0.488834 -0.756679 -47.722594 -2.007660 -7.130693 -16.635558 -35.364347 7.492649 0.000000 0.000000 0.000000 12.913530 7.331602 2.207402 50.560230 -2.560552 -8.018429 -0.476965 29.470421 0.954253 0.000000 0.000000 0.000000 
-0.009120 0.941650 -0.024356 0.339979 -8.025683 -1.632345 9.133863 0.063600 -6.940711 -3.801563 0.725902 14.450882 -1.006913 0.973035 8.573399 0.000000 0.000000 0.000000 -4.103140 1.065837 -13.109847 4.594746 -0.004722 20.279134 -4.451178 -13.914528 10.610914 0.000000 0.000000 0.000000 0.812009 -0.738495 24.787616 8.181590 -2.049193 -19.506192 -0.055460 2.740334 22.764242 -4.707561 4.212380 -14.892814 0.000000 0.000000 0.000000 -23.900940 -0.337050 -0.792076 -46.716823 -3.245410 -6.349113 -16.634147 -36.317484 7.530111 0.000000 0.000000 0.000000 12.368549 7.507847 2.565944 50.641585 -1.712622 -7.624036 0.079471 29.732137 1.185030 0.000000 0.000000 0.000000 
